:SAMPLES-PER-SECOND 30
:FULLY-SPECIFIED
:DEGREES
267
root  -6.06582 34.4147 11.973 -172.224 30.7904 -177.92
RightUpLeg  -39.0636 -27.3058 -10.0012
RightLeg  55.1114 -4.9441 -7.97217
RightFoot  -3.88302 -1.84167 27.3314
RightToes  -1.39699e-009 0 -3.6325e-017
Spine  25.0311 5.37272 -15.8904
Spine1  7.41941 -7.60704 36.9306
HEad  -5.51144 9.8303 -2.16439
LeftShoulder1  0.429816 1.52115 -14.7757
LeftArm  -0.028153 1.29933 -53.1826
LeftForeArm  104.893 -77.4059 -121.12
LeftHand  -2.1528 -2.65058 30.7058
RightShoulder  -0.204135 -4.45197 13.7926
RightArm  -74.5474 -18.6563 40.8112
RightForeArm  1.44542 64.7505 25.0913
RightHand  -3.51413 6.39832 -34.0882
LeftUpLeg  -35.5166 -17.78 15.3308
LeftLeg  59.7941 -7.00902 -12.253
LeftFoot  -29.1093 -2.09608 -14.4608
LeftToes  3.40148e-010 1.80944e-010 1.01921e-010
268
root  -6.10519 34.2517 12.1708 -174.426 22.7857 179.142
RightUpLeg  -36.7228 -30.6988 -15.5224
RightLeg  58.398 -4.74521 -8.7185
RightFoot  -2.58097 -2.35384 29.8396
RightToes  -1.39699e-009 0 -3.6325e-017
Spine  24.9354 6.07089 -11.4841
Spine1  10.49 -4.63017 29.3095
HEad  -7.49966 9.60149 -2.16325
LeftShoulder1  0.864076 -0.0779635 -17.5616
LeftArm  5.50379 0.675262 -59.1149
LeftForeArm  96.056 -78.6142 -109.973
LeftHand  -2.15434 -2.73398 30.3883
RightShoulder  0.0800916 -3.09615 14.1714
RightArm  -77.4207 -16.3206 40.9025
RightForeArm  -5.94422 58.1891 18.9048
RightHand  -4.30016 7.42142 -37.9505
LeftUpLeg  -37.7159 -21.6432 13.3158
LeftLeg  59.8306 -8.16063 -14.2959
LeftFoot  -27.9985 -1.80134 -13.4
LeftToes  3.40148e-010 1.80944e-010 1.01921e-010
269
root  -6.11486 34.1522 12.3649 -176.566 17.1125 176.938
RightUpLeg  -33.4375 -30.6797 -21.0265
RightLeg  60.4943 -4.21574 -8.52361
RightFoot  -1.24 -2.89068 31.8293
RightToes  -1.39699e-009 0 -3.6325e-017
Spine  25.6623 6.32243 -5.15149
Spine1  13.8593 -0.319804 18.5131
HEad  -8.96918 9.38101 -2.22188
LeftShoulder1  1.03433 -0.700307 -18.0001
LeftArm  11.1447 2.56711 -62.3798
LeftForeArm  91.9808 -79.0674 -103.866
LeftHand  -1.95693 -2.65269 27.9967
RightShoulder  0.0948553 -3.01701 13.1781
RightArm  -79.158 -10.8123 39.3577
RightForeArm  -3.81707 56.7562 17.751
RightHand  -4.15078 7.32976 -36.8885
LeftUpLeg  -38.0721 -23.4773 10.8396
LeftLeg  59.7949 -9.06384 -15.831
LeftFoot  -26.614 -1.5515 -12.721
LeftToes  3.40148e-010 1.80944e-010 1.01921e-010
270
root  -6.08672 34.0529 12.6153 -177.892 14.7753 175.075
RightUpLeg  -32.4805 -26.9348 -24.7546
RightLeg  62.1384 -3.85446 -8.41673
RightFoot  0.0489658 -3.28718 32.1699
RightToes  -1.39699e-009 0 -3.6325e-017
Spine  27.3764 6.0401 0.781376
Spine1  15.8074 4.68694 6.25015
HEad  -9.71587 9.14366 -2.87395
LeftShoulder1  0.928641 -0.407571 -17.0305
LeftArm  14.6227 7.55011 -60.9897
LeftForeArm  98.6755 -78.6696 -110.352
LeftHand  -1.76134 -2.66812 25.2776
RightShoulder  -0.0711046 -3.91638 9.78559
RightArm  -76.2047 -1.83749 37.1333
RightForeArm  3.21716 59.2876 19.0868
RightHand  -3.89169 7.35497 -34.7045
LeftUpLeg  -37.9933 -22.3215 8.41676
LeftLeg  59.8541 -9.60757 -16.7901
LeftFoot  -25.3292 -1.38851 -12.5171
LeftToes  3.40148e-010 1.80944e-010 1.01921e-010
271
root  -5.98975 33.9262 12.8956 -178.118 15.1582 172.753
RightUpLeg  -34.5982 -21.9284 -27.2497
RightLeg  63.6419 -3.46905 -8.16844
RightFoot  0.626646 -3.33907 31.1443
RightToes  -1.39699e-009 0 -3.6325e-017
Spine  29.4171 5.00695 4.57773
Spine1  15.8952 9.0498 -6.72902
HEad  -10.6795 8.99925 -4.78126
LeftShoulder1  0.753568 0.214583 -16.1522
LeftArm  14.9662 14.2446 -54.2786
LeftForeArm  112.076 -76.8316 -125.873
LeftHand  -1.6167 -2.57162 23.542
RightShoulder  -0.167765 -4.9392 3.5696
RightArm  -64.453 8.1799 34.2608
RightForeArm  9.70533 62.2309 21.0227
RightHand  -3.87471 7.80369 -33.4605
LeftUpLeg  -38.4878 -19.3619 6.00855
LeftLeg  59.6477 -9.78679 -16.9495
LeftFoot  -24.4831 -1.3172 -12.6659
LeftToes  3.40148e-010 1.80944e-010 1.01921e-010
272
root  -5.80158 33.8298 13.1557 -177.686 16.2304 170.168
RightUpLeg  -37.2663 -17.866 -29.5022
RightLeg  64.3344 -3.1337 -7.68999
RightFoot  -0.268918 -3.07307 30.9811
RightToes  -1.39699e-009 0 -3.6325e-017
Spine  31.565 3.18772 7.05498
Spine1  14.6726 12.0785 -19.646
HEad  -12.4091 7.90327 -7.35571
LeftShoulder1  0.7181 0.342936 -15.9326
LeftArm  12.813 19.9074 -45.095
LeftForeArm  119.756 -74.4573 -136.526
LeftHand  -1.45925 -2.07097 22.6914
RightShoulder  -0.116748 -5.77716 -3.74334
RightArm  -49.2054 15.8199 28.4738
RightForeArm  18.8458 67.3703 26.9502
RightHand  -3.62257 7.53049 -31.9934
LeftUpLeg  -39.3895 -16.6051 3.74519
LeftLeg  58.8737 -9.7414 -16.3641
LeftFoot  -23.8563 -1.28018 -12.9321
LeftToes  3.40148e-010 1.80944e-010 1.01921e-010
273
root  -5.49643 33.8048 13.3944 -176.848 15.7863 168.507
RightUpLeg  -38.2147 -15.4105 -30.8903
RightLeg  64.1791 -3.28241 -7.95851
RightFoot  -2.38219 -2.65704 32.8739
RightToes  -1.39699e-009 0 -3.6325e-017
Spine  33.8552 1.19576 8.91617
Spine1  12.9604 13.4865 -29.5023
HEad  -14.2714 5.20697 -8.9847
LeftShoulder1  0.808003 -0.0385809 -16.0325
LeftArm  8.59828 23.1241 -38.6949
LeftForeArm  120.793 -73.8675 -138.318
LeftHand  -1.30721 -1.51619 21.9743
RightShoulder  0.0161954 -6.6558 -10.107
RightArm  -42.403 19.1361 19.5841
RightForeArm  42.4187 75.9532 47.3081
RightHand  -3.0071 6.40839 -29.2709
LeftUpLeg  -40.4454 -14.958 2.44507
LeftLeg  57.7887 -9.57681 -15.4269
LeftFoot  -23.0914 -1.209 -13.0437
LeftToes  3.40148e-010 1.80944e-010 1.01921e-010
274
root  -5.05777 33.8312 13.6082 -175.499 12.861 168.433
RightUpLeg  -37.3736 -14.6598 -30.5742
RightLeg  64.1358 -4.00522 -9.53907
RightFoot  -4.56265 -2.17828 35.1362
RightToes  -1.39699e-009 0 -3.6325e-017
Spine  35.5802 -0.0271292 9.36434
Spine1  11.6406 13.2382 -33.1745
HEad  -15.6542 2.01641 -8.35567
LeftShoulder1  0.875911 -0.282283 -16.3948
LeftArm  2.6338 24.8885 -38.1566
LeftForeArm  120.608 -74.6696 -135.962
LeftHand  -1.27136 -1.44206 21.6137
RightShoulder  0.164481 -7.68641 -14.0619
RightArm  -46.5504 19.8005 12.8161
RightForeArm  79.6876 79.7779 82.9511
RightHand  -2.81625 6.41453 -27.4905
LeftUpLeg  -41.7095 -14.3756 2.63567
LeftLeg  56.6746 -9.3992 -14.512
LeftFoot  -22.2618 -1.10741 -12.9314
LeftToes  3.40148e-010 1.80944e-010 1.01921e-010
275
root  -4.54109 33.9268 13.7329 -174.11 8.37537 169.346
RightUpLeg  -35.6868 -15.2455 -29.0074
RightLeg  64.4969 -4.84862 -11.5602
RightFoot  -5.76541 -1.86174 36.2018
RightToes  -1.39699e-009 0 -3.6325e-017
Spine  36.1501 -0.161132 8.02274
Spine1  11.2163 11.9344 -31.1855
HEad  -16.6758 -0.241297 -5.41975
LeftShoulder1  0.945059 -0.430327 -17.3463
LeftArm  -3.50271 25.7617 -42.0149
LeftForeArm  121.787 -75.1111 -134.809
LeftHand  -1.38449 -1.73233 22.536
RightShoulder  0.218368 -8.49409 -14.585
RightArm  -53.2749 19.8367 11.6055
RightForeArm  96.6802 79.5692 100.578
RightHand  -3.0848 7.23596 -28.1233
LeftUpLeg  -42.7108 -14.9635 3.87319
LeftLeg  55.2426 -9.26419 -13.5563
LeftFoot  -21.4953 -1.02039 -12.8872
LeftToes  3.40148e-010 1.80944e-010 1.01921e-010
276
root  -4.05142 34.1766 13.7101 -173.519 4.43301 170.437
RightUpLeg  -33.7297 -15.5236 -27.3523
RightLeg  64.5008 -5.45904 -12.8931
RightFoot  -5.14582 -2.09692 36.7706
RightToes  -1.39699e-009 0 -3.6325e-017
Spine  35.8791 0.349916 5.9752
Spine1  11.7183 10.6486 -27.2037
HEad  -17.4236 -1.37287 -1.79185
LeftShoulder1  1.14981 -1.06462 -18.5829
LeftArm  -6.47415 24.6323 -46.2008
LeftForeArm  121.705 -75.401 -133.82
LeftHand  -1.57904 -2.0782 24.4631
RightShoulder  0.106307 -8.31702 -12.0169
RightArm  -56.5456 19.283 14.2812
RightForeArm  106.739 78.8232 112.288
RightHand  -3.03889 6.95824 -28.2975
LeftUpLeg  -42.5105 -16.7673 5.45465
LeftLeg  53.1824 -8.91869 -12.0995
LeftFoot  -20.5479 -0.948642 -13.2606
LeftToes  3.40148e-010 1.80944e-010 1.01921e-010
277
root  -3.63846 34.5996 13.5709 -173.725 2.42635 171.672
RightUpLeg  -32.0891 -14.287 -25.8337
RightLeg  63.9177 -5.77964 -13.232
RightFoot  -2.21176 -3.03214 36.6398
RightToes  -1.39699e-009 0 -3.6325e-017
Spine  35.1295 0.897476 4.72552
Spine1  12.6243 10.0528 -24.2688
HEad  -17.8961 -2.01724 0.323768
LeftShoulder1  1.48858 -2.26218 -19.3135
LeftArm  -4.38693 21.1077 -47.9757
LeftForeArm  116.596 -76.5861 -128.135
LeftHand  -1.71104 -2.34064 25.5849
RightShoulder  -0.0405678 -7.08378 -8.23416
RightArm  -54.943 18.7721 18.7543
RightForeArm  117.882 77.5663 123.959
RightHand  -2.61583 6.059 -26.3645
LeftUpLeg  -41.1644 -19.1073 7.26587
LeftLeg  50.8906 -8.04351 -10.024
LeftFoot  -19.1817 -0.856204 -14.1087
LeftToes  3.40148e-010 1.80944e-010 1.01921e-010
